HIERARCHY
ROOT Bip001_Pelvis
{
  OFFSET 34.4345 95.6767 -26.8758
  CHANNELS 6 Xposition Yposition Zposition Zrotation Xrotation Yrotation
  JOINT Bip001_Spine
  {
    OFFSET 1.4188e-005 10.2191 -0.0116013
    CHANNELS 3 Zrotation Xrotation Yrotation
    JOINT Bip001_L_Thigh
    {
      OFFSET 11.0458 -10.2192 0.0116197
      CHANNELS 3 Zrotation Xrotation Yrotation
      JOINT Bip001_L_Calf
      {
        OFFSET -0.707118 -44.0221 0.360014
        CHANNELS 3 Zrotation Xrotation Yrotation
        JOINT Bip001_L_Foot
        {
          OFFSET -0.651902 -40.5938 -3.56146
          CHANNELS 3 Zrotation Xrotation Yrotation
          JOINT Bip001_L_Toe0
          {
            OFFSET 0.0530839 -10.2181 13.1504
            CHANNELS 3 Zrotation Xrotation Yrotation
            End Site
            {
              OFFSET -1.02532e-005 0 7.55606
            }
          }
        }
      }
    }
    JOINT Bip001_R_Thigh
    {
      OFFSET -11.0458 -10.2191 0.0115893
      CHANNELS 3 Zrotation Xrotation Yrotation
      JOINT Bip001_R_Calf
      {
        OFFSET 0.706994 -44.0221 0.35984
        CHANNELS 3 Zrotation Xrotation Yrotation
        JOINT Bip001_R_Foot
        {
          OFFSET 0.651786 -40.5938 -3.5613
          CHANNELS 3 Zrotation Xrotation Yrotation
          JOINT Bip001_R_Toe0
          {
            OFFSET -0.0531479 -10.2181 13.1504
            CHANNELS 3 Zrotation Xrotation Yrotation
            End Site
            {
              OFFSET -1.02894e-005 0 7.55606
            }
          }
        }
      }
    }
    JOINT Bip001_Spine1
    {
      OFFSET 1.87041e-005 14.5736 1.08638
      CHANNELS 3 Zrotation Xrotation Yrotation
      JOINT Bip001_Spine2
      {
        OFFSET 2.24614e-005 14.5058 -1.69078
        CHANNELS 3 Zrotation Xrotation Yrotation
        JOINT Bip001_Neck
        {
          OFFSET 2.20278e-005 15.3945 -0.489414
          CHANNELS 3 Zrotation Xrotation Yrotation
          JOINT Bip001_L_Clavicle
          {
            OFFSET 6.06036 -0.000579998 0.00836775
            CHANNELS 3 Zrotation Xrotation Yrotation
            JOINT Bip001_L_UpperArm
            {
              OFFSET 11.5509 -0.0600302 0.00193952
              CHANNELS 3 Zrotation Xrotation Yrotation
              JOINT Bip001_L_Forearm
              {
                OFFSET 25.9523 0.0806089 -2.15551
                CHANNELS 3 Zrotation Xrotation Yrotation
                JOINT Bip001_L_Hand
                {
                  OFFSET 32.2475 0.153767 1.63968
                  CHANNELS 3 Zrotation Xrotation Yrotation
                  JOINT Bip001_L_Finger0
                  {
                    OFFSET 6.04639 -2.20976 5.90322
                    CHANNELS 3 Zrotation Xrotation Yrotation
                    End Site
                    {
                      OFFSET 4.22375 -1.43895 0.606485
                    }
                  }
                  JOINT Bip001_L_Finger1
                  {
                    OFFSET 11.0826 -0.704819 -0.198153
                    CHANNELS 3 Zrotation Xrotation Yrotation
                    End Site
                    {
                      OFFSET 6.20027 -0.397518 -0.0787166
                    }
                  }
                }
              }
            }
          }
          JOINT Bip001_R_Clavicle
          {
            OFFSET -6.06037 -0.000563197 0.00835105
            CHANNELS 3 Zrotation Xrotation Yrotation
            JOINT Bip001_R_UpperArm
            {
              OFFSET -11.5509 -0.0599978 0.00190698
              CHANNELS 3 Zrotation Xrotation Yrotation
              JOINT Bip001_R_Forearm
              {
                OFFSET -25.9523 0.0806822 -2.15589
                CHANNELS 3 Zrotation Xrotation Yrotation
                JOINT Bip001_R_Hand
                {
                  OFFSET -32.2475 0.153859 1.63989
                  CHANNELS 3 Zrotation Xrotation Yrotation
                  JOINT Bip001_R_Finger0
                  {
                    OFFSET -6.04641 -2.20976 5.90317
                    CHANNELS 3 Zrotation Xrotation Yrotation
                    End Site
                    {
                      OFFSET -4.22376 -1.43895 0.60647
                    }
                  }
                  JOINT Bip001_R_Finger1
                  {
                    OFFSET -11.0826 -0.704794 -0.198182
                    CHANNELS 3 Zrotation Xrotation Yrotation
                    End Site
                    {
                      OFFSET -6.20028 -0.397504 -0.0787333
                    }
                  }
                }
              }
            }
          }
          JOINT Bip001_Head
          {
            OFFSET 1.09673e-005 11.2744 2.05948
            CHANNELS 3 Zrotation Xrotation Yrotation
            End Site
            {
              OFFSET 2.89576e-005 20.8808 -2.77728e-005
            }
          }
        }
      }
    }
  }
}
MOTION
Frames:	13
Frame Time:	0.04
33.7353 89.325 -31.005 -1.08974 -9.23975 -12.1524 -0.101609 4.29918 -1.8978 12.2543 -6.31604 16.3571 -10.0079 38.8365 9.77376 9.15873 -18.3406 1.06641 2.38194 -8.29368 -0.788239 -2.5704 -15.5332 10.9604 1.00348 43.3438 5.29395 -15.1846 -18.0971 -7.51062 4.50001 -14.049 4.6039 -0.0601645 8.59939 -3.80408 -0.0592813 8.59942 -3.8042 4.95193 -4.74498 5.45083 -24.7572 8.63345 -7.02346 -52.2122 26.3044 0.289613 18.3042 -3.12722 -41.1028 7.54585 2.11393 -6.79922 -3.18055e-015 9.54166e-015 1.59028e-015 -3.18055e-015 9.54167e-015 -1.59028e-015 21.8781 7.22573 4.55971 81.601 29.7179 -25.1681 -28.3053 4.47816 16.6734 -27.3196 -10.9103 1.29753 -6.36111e-015 0 -1.59028e-015 -3.97569e-015 0 -0 -3.38399 -8.9986 7.15838 
33.6626 88.6111 -30.6747 -1.32191 -10.146 -14.527 -0.0932869 4.47614 -2.14846 12.3485 -5.37656 17.3467 -10.9513 40.3221 11.4772 10.4241 -18.5638 1.22871 2.75131 -9.45793 -0.946966 -2.38857 -16.2525 11.4387 0.2813 45.8831 6.36912 -15.4266 -19.538 -6.73652 4.60323 -14.3489 4.73866 -0.0259111 8.95283 -4.3091 -0.0287121 8.95284 -4.30887 5.04061 -2.57552 7.35709 -24.6555 7.30444 -9.07401 -54.0104 25.9928 1.99802 17.639 -3.57852 -39.2669 8.60939 1.91182 -6.90676 -6.36111e-015 -4.77083e-015 4.77083e-015 -6.36111e-015 -3.18056e-015 4.77083e-015 21.9839 4.24859 2.68545 78.7375 29.0701 -25.4221 -29.2784 6.72414 18.0195 -26.0454 -12.2491 1.85228 5.96354e-015 3.18055e-015 -0 5.96354e-015 0 -0 -3.50561 -11.1806 9.14902 
33.6612 88.0613 -30.4124 -1.50497 -10.9745 -17.1343 -0.0683137 4.55791 -2.41516 11.9377 -4.40778 16.8728 -12.4078 41.3553 15.141 9.82259 -19.5556 1.26335 2.73361 -9.38685 -0.841655 -2.49272 -16.872 12.0093 -0.271767 47.8841 7.31516 -15.5921 -20.8159 -5.7606 4.59158 -14.426 4.9082 0.0483711 9.11475 -4.84774 0.0494677 9.11478 -4.84778 4.05559 -1.29977 8.9526 -23.8441 6.48836 -10.1985 -55.3278 28.5591 2.86942 17.1718 -4.09638 -35.2 9.80792 1.48469 -6.62688 -3.18055e-015 -1.59028e-015 3.18055e-015 4.41391e-032 -1.59028e-015 1.59028e-015 22.8766 1.78548 0.0691032 73.8449 26.13 -24.117 -29.5649 8.84189 20.8628 -27.5545 -13.3239 3.22211 8.34895e-015 1.59028e-015 -0 7.95139e-015 1.59028e-015 -0 -2.44406 -11.9249 10.4154 
33.6697 87.6512 -30.2205 -1.75022 -11.7005 -19.1134 -0.0493887 4.65157 -2.55317 11.2837 -3.77493 16.9132 -12.2921 42.375 16.9332 8.83793 -20.4702 1.21304 2.60696 -9.15449 -0.594785 -2.39363 -17.2234 12.8581 -0.655431 49.3596 7.93932 -15.6417 -21.5908 -5.23795 4.58069 -14.4552 5.00471 0.109002 9.30071 -5.12766 0.110055 9.30074 -5.1277 3.79705 -0.238778 9.88652 -23.4605 5.76191 -11.2772 -56.0579 31.8787 2.77532 15.8394 -5.52128 -30.3456 9.74244 1.05683 -5.77949 -2.64834e-031 -3.18055e-015 -4.77083e-015 -3.18055e-015 1.59028e-015 -3.18055e-015 22.6087 0.00979154 -1.68601 69.5959 20.3083 -21.7743 -30.9731 10.8871 24.3105 -29.2262 -13.8058 4.539 1.98785e-016 2.38542e-015 3.18055e-015 -4.57205e-015 4.77083e-015 1.59028e-015 -2.30155 -12.567 11.3458 
33.6835 87.4851 -30.0793 -1.87808 -12.3915 -20.4697 -0.0741174 4.78191 -2.61196 10.5938 -3.15914 16.9782 -11.8972 42.7585 18.1243 7.75221 -20.9044 1.10634 2.59476 -8.9559 -0.492197 -2.25697 -17.1703 13.7437 -1.10573 50.0552 8.25284 -15.6437 -21.9002 -4.84551 4.61875 -14.5421 5.01788 0.0714466 9.56222 -5.24469 0.0716517 9.56223 -5.24499 3.26659 -0.215956 10.412 -22.5537 5.91041 -12.2794 -56.1196 33.7364 2.37139 12.6308 -9.77624 -26.9159 10.7305 -0.236527 -4.6756 -9.54166e-015 1.59028e-015 -1.59028e-015 -3.18055e-015 0 -3.18055e-015 22.7646 -0.540275 -2.96101 66.7149 14.0366 -19.3649 -33.5192 12.7863 27.044 -29.2378 -15.6056 6.52055 -2.80783e-015 1.2424e-015 1.59028e-015 -5.42931e-015 1.83876e-015 1.59028e-015 -1.28972 -12.5855 11.5658 
33.6936 87.3801 -29.9896 -2.00353 -13.0119 -21.3774 -0.0894189 4.87288 -2.62176 10.2711 -2.5435 16.0842 -12.7816 42.8768 20.5055 5.87943 -22.0154 0.924058 2.59877 -8.2625 -0.631912 -2.12913 -16.9708 14.2461 -1.66684 50.5306 8.86928 -15.7278 -21.9909 -4.85267 4.67077 -14.6784 5.07268 0.0450092 9.74533 -5.26212 0.0471978 9.74501 -5.26348 3.20462 -0.1074 10.5322 -22.1784 5.88732 -12.9109 -56.1609 33.8252 2.04746 9.81815 -14.7497 -25.169 11.1396 -0.22645 -3.69499 -3.18055e-015 -3.18055e-015 3.18055e-015 -0 0 3.18055e-015 22.375 -0.75295 -3.35467 64.7102 6.81231 -16.9208 -35.8266 14.0882 29.5392 -30.6887 -17.1082 8.38457 -1.39149e-015 0 -0 1.78906e-015 -2.38542e-015 -1.59028e-015 -1.03822 -12.6008 11.6327 
33.6757 87.3004 -30.017 -2.00191 -13.2027 -21.5592 -0.0711665 4.86329 -2.67635 10.0702 -2.39496 16.4321 -12.3702 43.0327 20.1902 6.18408 -22.0083 0.964904 2.6784 -8.36328 -0.59586 -2.03894 -16.9218 14.5187 -1.85962 50.7665 9.04559 -15.8909 -22.0299 -5.05052 4.72986 -14.8338 5.13709 0.0871081 9.72449 -5.37934 0.0862371 9.7246 -5.37724 3.32244 0.0796813 10.7325 -21.9052 5.73679 -13.2261 -56.2795 33.0774 1.9723 10.028 -14.3536 -24.631 10.2111 0.805128 -2.64412 -1.27222e-014 -3.18055e-015 1.59028e-015 -6.36111e-015 -3.18056e-015 1.59028e-015 22.0336 -0.884226 -3.20844 63.2727 -0.623668 -15.6052 -37.8188 13.0599 33.3885 -32.7057 -16.7326 8.84414 5.76475e-015 0 1.59028e-015 8.74652e-015 1.59028e-015 -1.59028e-015 -1.28262 -12.6479 11.9225 
33.5744 87.2771 -30.1352 -2.02645 -13.2212 -21.3938 0.0254778 4.82146 -2.67379 10.1901 -2.32729 16.8249 -12.1625 43.054 19.2805 6.6702 -21.9551 1.03357 2.64456 -8.50741 -0.540723 -2.14161 -16.9033 14.5383 -1.36018 50.8201 8.67774 -16.0235 -22.0462 -5.21974 4.74961 -14.8818 5.14453 0.279097 9.63644 -5.37709 0.279129 9.63646 -5.37785 3.17699 0.502038 11.0708 -21.6518 5.42285 -13.739 -56.0457 33.6482 1.94777 10.9879 -12.6847 -24.5564 9.7445 1.42454 -1.859 -3.18055e-015 -3.18055e-015 -0 -0 -3.18056e-015 -0 22.1628 -1.24979 -2.80289 61.4821 -7.50016 -15.026 -42.1339 13.9495 38.5381 -35.096 -16.4665 9.22003 7.95139e-016 1.59028e-015 -0 7.95139e-016 -1.59028e-015 -1.59028e-015 -1.97945 -13.2651 12.3395 
33.4443 87.2 -30.3559 -2.05931 -12.9445 -20.2956 0.164529 4.71163 -2.62416 10.8036 -2.93598 16.2008 -12.7651 43.5074 18.7602 6.92909 -22.2821 1.09039 2.43931 -8.37511 -0.373662 -2.25357 -16.9483 13.9746 -0.599394 50.8568 8.04285 -16.2522 -22.0323 -5.68758 4.74503 -14.8616 5.13215 0.545598 9.41074 -5.2882 0.545599 9.41079 -5.28821 3.39682 -0.659863 10.7289 -21.3086 6.42477 -13.5129 -55.2467 34.3406 1.87724 10.7313 -12.2912 -25.3499 8.92962 0.875526 -2.52312 -3.18055e-015 3.18055e-015 -1.59028e-015 -3.18055e-015 6.36111e-015 -1.59028e-015 22.0276 0.00380659 -2.87686 59.3349 -14.9022 -14.6687 -47.234 15.8863 45.0136 -38.6635 -18.0298 9.573 -1.19271e-015 0 3.18055e-015 -4.77083e-015 3.18056e-015 1.59028e-015 -2.3467 -11.885 12.0351 
33.3224 87.1945 -30.4596 -1.94156 -13.0009 -19.1531 0.195391 4.65021 -2.45655 11.2201 -3.09622 16.8489 -12.1608 43.7662 16.5451 7.5017 -22.1398 1.16058 2.47963 -8.46186 -0.420576 -2.53027 -16.6958 13.5525 0.349845 50.8914 7.19353 -16.4875 -21.96 -6.25578 4.73328 -14.8192 5.1004 0.590856 9.28773 -4.95295 0.593024 9.28776 -4.95327 3.81844 -0.283851 10.8085 -21.3644 6.23184 -14.3039 -54.6391 34.7244 1.98208 10.3008 -13.5155 -27.0477 8.11692 0.863968 -2.36839 -8.82781e-032 3.18055e-015 1.59028e-015 0 3.18056e-015 -0 21.4428 -0.182981 -2.51996 56.4124 -21.8024 -14.2971 -49.6822 16.2899 52.1205 -43.0046 -19.1068 9.13337 -1.59028e-015 0 -1.59028e-015 -0 -3.18056e-015 -0 -3.3807 -12.5762 12.3581 
33.2684 87.3601 -30.5768 -1.57577 -13.1215 -17.3983 0.141278 4.6059 -2.30104 11.3432 -3.34173 16.5958 -11.7141 43.4896 14.8986 7.76543 -21.724 1.16819 2.62404 -8.47696 -0.650077 -3.10734 -16.1265 12.4389 0.980047 50.3921 6.50558 -16.6179 -21.7849 -6.63906 4.6834 -14.65 4.98599 0.477028 9.20233 -4.63635 0.470669 9.20236 -4.63607 3.6708 -2.21053 9.95404 -20.8204 7.7618 -13.4338 -53.6852 33.3537 1.94496 10.6326 -12.4122 -29.154 7.82906 0.784238 -2.58119 -3.18055e-015 -6.36111e-015 1.59028e-015 -3.18055e-015 -3.18056e-015 -0 22.0779 2.22117 -1.26231 53.319 -28.6677 -13.7674 -49.4336 14.7457 58.7514 -43.5147 -19.9807 9.87128 -7.95139e-016 0 4.77083e-015 -0 0 4.77083e-015 -2.81032 -11.0254 11.326 
33.1597 87.7241 -30.6762 -1.35649 -13.1192 -15.2762 0.143073 4.52556 -2.07776 11.4061 -3.58386 15.7765 -11.0204 42.7019 13.2371 8.34772 -20.7627 1.18024 2.87794 -8.70144 -0.923006 -3.45042 -15.1556 10.9051 1.07264 49.2757 6.24063 -16.5629 -21.2102 -7.04493 4.63521 -14.4842 4.86943 0.452105 9.04289 -4.18649 0.453947 9.04294 -4.18664 4.19887 -2.74523 8.88409 -21.4319 8.18409 -13.1275 -52.8425 31.895 1.78023 11.1341 -10.9599 -30.5311 9.28165 1.13383 -3.62179 1.59028e-014 -3.18055e-015 -6.36111e-015 1.59028e-014 0 -6.36111e-015 21.7492 3.60238 0.823687 49.189 -35.1205 -12.431 -51.2242 15.3339 65.5437 -46.1513 -20.8019 9.57909 -3.18055e-015 3.18055e-015 -4.77083e-015 -3.18055e-015 9.54167e-015 -1.59028e-015 -4.05744 -10.9332 10.5412 
32.9211 88.3717 -30.8405 -1.26483 -12.7162 -13.3327 0.152196 4.35836 -1.75664 11.5874 -3.74798 14.9666 -10.1022 41.1346 11.4695 8.17416 -19.6536 1.06021 3.01782 -8.67104 -1.19764 -3.48332 -14.006 9.84806 1.54805 47.1274 5.42208 -16.2817 -20.2719 -7.35363 4.52404 -14.1553 4.69889 0.436978 8.70999 -3.54022 0.435191 8.71 -3.5397 4.27408 -4.37221 7.23538 -21.7938 9.33609 -11.805 -52.2507 31.502 1.66103 12.1413 -9.38117 -31.1632 11.0565 0.694236 -5.04622 6.36111e-015 3.18055e-015 -6.36111e-015 3.18055e-015 1.59028e-015 -4.77083e-015 21.6094 6.20403 3.2998 45.3961 -40.9254 -9.73913 -51.4235 15.8353 71.7483 -47.8743 -21.5689 9.19531 1.59028e-015 -6.36111e-015 1.59028e-015 1.76556e-031 -6.36111e-015 1.59028e-015 -4.50013 -9.43121 8.90075 
